<svg xmlns="http://www.w3.org/2000/svg" viewBox="0 0 1014 958.28"><title>CM-p</title><g id="图层_3" data-name="图层 3"><polygon points="656.5 21.44 470.92 448.23 456.7 480.91 443.89 510.39 433.38 470.76 421.75 426.85 421.61 426.36 607.19 0 656.5 21.44"/><polygon points="357.5 936.84 543.09 510.05 557.3 477.36 570.11 447.88 580.62 487.51 592.25 531.43 592.39 531.92 406.81 958.28 357.5 936.84"/></g><g id="图层_4" data-name="图层 4"><path d="M802.77,689.21C750.72,780.5,652.49,842,539.88,842c-167,0-302.4-135.39-302.4-302.4a302,302,0,0,1,13.71-90.27l-48.52-21.1a354.45,354.45,0,0,0-17.83,111.37c0,196.08,159,355,355,355,134.22,0,251.06-74.49,311.41-184.39Z" transform="translate(-34 -63.86)"/><path d="M894.92,539.64a354.51,354.51,0,0,1-17.68,110.95l-48.53-21.1a302.13,302.13,0,0,0,13.57-89.85c0-167-135.39-302.4-302.4-302.4-112.45,0-210.56,61.38-262.67,152.44L228.7,368.59c60.4-109.68,177.12-184,311.18-184C736,184.6,894.92,343.56,894.92,539.64Z" transform="translate(-34 -63.86)"/></g><g id="图层_5" data-name="图层 5"><polygon points="385.49 442.9 19.37 283.72 33.57 251.04 373.85 398.99 385.49 442.9"/><path d="M197.76,526.48C-8.32,378.61-21.71,265.13,167.86,273s510.3,134.15,716.38,282,219.47,261.35,29.91,253.47S403.84,674.35,197.76,526.48ZM859.45,554C668.25,416.82,370.68,299.67,194.8,292.35s-163.45,98,27.75,235.16S711.32,781.85,887.2,789.17,1050.65,691.2,859.45,554Z" transform="translate(-34 -63.86)"/><polygon points="628.51 510.89 994.63 670.08 980.43 702.76 640.15 554.81 628.51 510.89"/></g></svg>