<?xml version="1.0" encoding="utf-8"?>
<!-- Generator: Adobe Illustrator 23.0.0, SVG Export Plug-In . SVG Version: 6.00 Build 0)  -->
<svg version="1.1" id="图层_1" xmlns="http://www.w3.org/2000/svg" xmlns:xlink="http://www.w3.org/1999/xlink" x="0px" y="0px"
	 viewBox="0 0 1080 1080" style="enable-background:new 0 0 1080 1080;" xml:space="preserve">
<style type="text/css">
	.st0{fill:none;stroke:#000000;stroke-width:47;stroke-miterlimit:10;}
	.st1{display:none;}
	.st2{display:inline;}
</style>
<g>
	<g>
		<path class="st0" d="M836.9,788.2c56.3-67.2,90.2-153.8,90.2-248.3c0-213.8-173.3-387.1-387.1-387.1
			c-94.5,0-181.1,33.9-248.3,90.2"/>
		<path class="st0" d="M243.1,291.5c-56.3,67.2-90.2,153.8-90.2,248.3c0,213.8,173.3,387.1,387.1,387.1
			c94.5,0,181.1-33.9,248.3-90.2"/>
	</g>
</g>
<g id="图层_3">
	<polygon points="947.5,50 900.4,2.9 441.4,461.4 423.6,573.9 	"/>
	<polygon points="132.5,1029.9 179.6,1077.1 638.6,618 656.4,505.4 	"/>
</g>
<g id="图层_4">
</g>
<g id="图层_5" class="st1">
	<g class="st2">
		<g transform="translate(0.000000,2400.000000) scale(0.100000,-0.100000)">
			<path class="st1" d="M3839.1,23916.8c-1.5-7.8-35.4-202.4-75.7-433.4c-39.8-231-74.3-422.7-76.2-426.1
				c-2.4-3.4-35.4-18.9-74.3-34.5c-751.8-303.3-1428.9-808.1-1934.6-1442c-524.2-657.2-867.3-1440.5-989.6-2256.9
				c-6.8-46.6-15-90.3-17.5-96.6c-9.7-23.8-29.1-210.2-38.3-371.3c-6.3-111.6-6.3-392.2,0-510.1c5.8-105.8,15-204.8,30.1-331.5
				l10.7-89.3l-19.4-18c-40.3-37.9-94.2-87.4-147.5-136.4c-30.6-28.2-70.9-65-89.8-82.5c-40.8-38.3-48-44.7-253.4-234.9
				C74.8,17371.9,1.5,17303,0,17300.6c-1.5-1.9,59.2-110.7,134.4-241.2s427.6-740.2,782.4-1354.6
				c354.8-614.9,647.5-1117.8,650.4-1117.8s41.3,13.1,85.4,29.6c43.7,16,138.8,51,210.6,77.2c427.1,156.3,531.9,194.1,535.8,194.1
				c2.9,0,17.5-10.7,33.5-23.8c88.8-74.3,306.7-227.6,449.9-316.9c242.7-151.4,558.6-305.8,854.2-416.4
				c705.7-264.5,1486.6-357.7,2235-266.9c399.4,48.5,802.8,149.5,1162.4,291.2c48,18.9,91.7,34.9,97.1,35.9
				c26.2,4.4,181.5,75.2,334.9,152.4c249,126.2,466.9,261.1,695.5,431.5l93.7,69.4l25.2-7.8c14.1-4.4,32-9.7,39.8-12.6
				c22.8-7.3,244.1-76.2,276.6-85.9c56.3-17,315.5-98,327.6-102.4c6.8-2.4,34.9-11.2,63.1-19.4c28.1-8.7,71.3-21.8,96.1-30.1
				c24.8-7.8,47.1-13.6,49.5-12.6c5.8,1.9,1568.6,2707.8,1566.7,2712.1c-1.5,3.4-94.6,82-484.4,406.7
				c-97.6,81.5-181,151.9-186.4,156.3c-8.7,8.7-8.7,10.2,1,81.1c53.9,379.5,60.2,755.2,19.9,1151.7
				c-93.2,916.8-444.6,1776.9-1021.7,2500.5c-369.8,464-837.2,863.9-1356.1,1160.5c-162.6,92.7-388.8,203.8-551.8,270.3
				c-22.3,8.7-41.3,19.9-42.2,23.8c-1.5,4.4-46.6,203.4-100,442.2c-53.9,238.8-99,438.3-100,443.1c-2.4,7.8-81.5,8.3-1569.6,8.3
				H3842L3839.1,23916.8z M6716.3,23671.7c3.9-13.1,114.1-484.9,153.4-656.7c18.9-84,36.4-159.2,38.3-167.4
				c3.4-13.6,8.7-16.5,95.6-50c191.2-73.8,419.3-179.6,577.1-267.9c514.5-287.3,957.6-661,1320.1-1111.4
				c564.9-702.3,904.2-1554.1,977.5-2453.4c16-194.6,18.9-539.7,5.3-701.3c-12.6-155.3-36.4-337.3-64.1-491.7l-5.8-32.5l21.4-20.9
				c12.1-11.2,41.7-36.9,65.5-56.8c24.3-19.9,46.1-38.8,49.5-41.7c2.9-2.9,27.7-23.8,55.3-46.1c27.2-22.3,70.4-58.2,96.1-79.6
				c25.7-21.8,108.7-91.2,184.9-154.8c185.4-155.3,172.3-143.2,166.5-152.9c-2.4-4.4-297-514-653.8-1132.3
				c-390.2-676.1-652.3-1125-656.2-1125s-42.7,10.7-85.9,23.8s-86.4,26.2-95.6,28.6c-20.4,5.3-217.9,65-259.7,78.1
				c-16,5.3-48.5,15-72.8,22.3c-23.8,7.3-48,15-53.4,17c-5.3,2.4-19.4,6.8-31.5,9.7s-26.2,7.3-31.5,9.7s-24.8,8.7-43.7,13.6
				c-18.4,5.3-60.7,18-93.2,27.7c-58.7,18-59.2,18-71.3,9.2c-6.3-5.3-43.2-34.5-81.5-65.5c-117.5-95.1-334.4-251.9-348-251.9
				c-2.4,0-24.3-12.6-47.6-27.7c-226.7-146.1-509.1-290.7-767.8-393.1c-437.8-173.3-872.2-271.3-1366.7-308.2
				c-108.2-7.8-469.3-7.8-577.6,0c-632.4,47.1-1188.6,199-1730.3,472.2c-280.5,141.2-573.7,329.6-793.5,509.1
				c-18.4,15.5-36.4,28.6-39.8,29.6c-2.9,1-26.7,20.4-52.4,42.7l-47.1,40.3l-22.8-4.9c-21.8-4.9-53.4-15.5-209.2-73.8
				c-44.2-16.5-150.9-55.8-237.8-87.4c-86.9-31.5-193.7-70.9-237.8-86.9c-43.7-16.5-82-29.6-84.9-29.6s-299.5,510.1-659.6,1133.8
				l-654.7,1133.8l16.5,14.6c9.2,8.3,52.4,49,96.6,90.8c44.2,41.3,94.2,88.8,111.6,104.8c17.5,16.5,52.4,49.5,77.7,73.8
				c25.2,24.3,57.8,54.4,72.3,67.5c14.6,13.1,34.5,31.5,44.7,40.8c33,31.1,126.7,118.9,139.8,130.6c6.8,6.3,27.2,25.2,44.7,42.2
				l32.5,31.1l-6.8,34.9c-24.3,126.2-51,356.2-52.9,450.4c-0.5,38.8-2.9,143.7-4.9,233c-5.8,258.7,9.7,504.3,48.5,759.6
				c189.3,1247.8,893.5,2357.3,1941.4,3057.7c306.3,205.3,649.9,378.6,980.4,495.1c55.8,19.9,58.2,21.4,62.1,36.9
				c4.9,19.4,36.4,196.6,96.1,540.7c24.3,138.8,45.1,257.2,46.6,263.5l2.4,10.7h1309.5C6647.4,23680,6713.9,23679.5,6716.3,23671.7z
				"/>
			<path d="M5210,22000.5v-250l-20.5-2.4c-11.7-1-66.8-6.8-122.9-12.6c-494.3-49-996-230.1-1422-512.5
				c-340.8-225.7-647.4-531-874.1-870.2c-153.1-228.6-288.1-503.8-372.9-760.5c-235.9-711.5-212.1-1475.5,67.8-2169.5
				c19.5-48,53.6-124.7,76.1-171.3c22.4-46.6,40.9-85.9,40.9-87.8s-107.3-65-238.9-140.8c-131.1-75.2-241.8-139.3-246.2-142.7
				c-6.3-4.4,5.9-28.2,88.7-171.3c53.1-91.7,98-166.5,99.4-166.5c1.9,0,113.6,63.1,248.1,140.8s246.2,140.8,248.6,140.8
				c1.9,0,23.9-28.1,48.3-62.6c214.5-299.9,502.1-577.1,814.1-783.8c229.6-152.4,506-286.8,763.9-371.3
				c650.8-214,1342.1-214,1992.9,0c257.9,84.5,534.3,218.9,763.9,371.3c315.9,209.2,597.7,481.5,820.5,793.1
				c28.8,40.3,53.1,72.8,54.6,72.8c1,0,110.2-62.1,242.3-137.8c131.6-76.2,243.3-139.8,247.6-141.2c5.9-2.4,28.8,33.5,103.8,163.1
				c86.8,149,95.5,167,88.2,172.3c-4.4,3.4-115.5,67.5-246.7,142.7c-131.1,75.7-238.4,138.8-238.4,140.8s16.1,36.9,36.1,78.1
				c270.1,561.1,363.2,1236.7,255.9,1863.3c-74.6,437.3-242.8,859.6-489.9,1228.4c-195.5,292.7-447,556.7-733.2,770.7
				c-158.9,118.4-301.3,205.8-487.5,298.5c-344.7,171.3-707.4,277.1-1075.4,313.5c-56.1,5.8-111.1,11.6-122.4,12.6l-21,2.4v250
				v249.5h-195h-195L5210,22000.5L5210,22000.5z M5210,20605v-565h-222.3c-129.2,0-221.3-1.9-220.4-4.4
				c4.9-14.1,645.5-1252.3,647.4-1252.3s642,1238.1,647.4,1252.3c1,2.4-96,4.4-230.1,4.4h-232v565v565h21.9
				c68.7,0,274-34.1,412.4-68.7c186.2-46.3,333.5-100.8,513.8-189.5c197-96.9,355.4-199.7,526.5-341.4
				c74.6-61.4,266.2-256.2,330.5-335.1c95.1-117.4,183.3-246,255.9-373.6c39-68.7,119-235.3,149.2-312.2
				c224.3-566,242.8-1194.8,51.7-1768.5c-43.4-130.5-121.4-317.6-132.6-317.6c-5.9,0-900.9,515.3-910.2,524.1
				c-5.9,4.9,10.2,36,100.9,192.9c59.5,102.8,108.2,188.5,108.2,191.4c0,4.9,3.4,4.9-112.1,9.7c-46.8,1.9-88.7,3.9-92.6,4.9
				c-3.9,0.5-47.8,2.9-97.5,4.4c-49.7,1.9-100.9,4.4-114.6,5.4c-13.2,1-57,3.4-97.5,4.9c-40,1.5-82.9,3.9-95.1,4.9
				s-60.5,3.4-107.3,5.4c-46.8,1.5-92.6,3.4-101.4,4.4c-8.8,0.5-53.6,2.9-99.9,4.9c-45.8,1.9-91.6,3.9-100.9,4.9
				s-58.5,2.9-109.7,4.9c-50.7,1.9-96,3.9-99.9,4.9c-18.5,3.4-180.4,8.3-180.4,5.4c0-1.9,138.5-218.7,308.1-481.7
				c169.2-263,340.8-529.4,381.2-591.8c65.8-102.3,73.6-113,79.5-105.2c3.4,4.9,56.1,95,117,200.2l110.7,191.4l14.6-8.8
				c8.3-4.9,214-123.7,457.8-264c243.3-140.3,442.2-257.2,442.2-259.6c0-7.3-72.1-104.2-131.1-176.3c-60-73.5-254-269.8-324.7-328.3
				c-107.3-89.1-225.7-172.9-343.7-244c-82.4-50.2-277.9-146.1-369-182.2c-617.2-243.5-1296.8-243.5-1913.9,0
				c-91.2,36-286.6,132-369,182.2c-118,71.1-237.4,155.4-343.7,244c-69.2,57.5-255,244-314.4,316.1
				c-55.6,66.7-133.6,170-131.1,172.9c1,1,200.4,115.9,443.1,255.7s448,258.6,456.8,263.5l15.1,9.3l106.3-183.6
				c58.5-101.3,108.7-188,112.1-192.9c4.9-7.8,9.3-2.9,35.6,39c16.6,26.3,60,94,96.5,150c36.1,56.5,90.7,140.8,120.9,187.5
				c51.7,80.9,219.4,341.4,263.3,409.1c11.2,17.5,60.5,94,109.7,170.5c49.2,76.5,100.9,156.8,115,178.8
				c14.6,22.4,26.3,42.9,26.3,45.8c0,3.4-11.7,4.4-37.5,2.4c-21-1.5-67.8-3.9-103.8-5.4c-36.1-1.5-82.4-3.4-102.4-4.9
				c-39.5-2.4-107.7-5.8-204.8-9.7c-33.6-1.5-77.5-3.4-97.5-4.9s-63.9-3.4-97.5-4.9c-61.9-2.4-118-5.4-203.3-9.7
				c-26.3-1.5-96-4.9-155-7.3s-128.7-5.8-154.5-7.3c-26.3-1.5-69.2-3.4-95.1-4.9c-118.5-5.8-157.5-8.8-157.5-11.7
				c0-1.5,51.2-92.1,114.1-200.2l114.1-197.3l-13.2-7.8c-42.4-26.8-902.4-520.7-906.3-520.7c-5.9,0-51.2,96.4-86.3,183.1
				c-141.9,349.7-206.7,749.6-182.8,1124.6c27.8,432.5,159.9,843.6,389,1212.8c50.2,80.9,126.8,187,194.5,270.8
				c64.4,78.9,255.9,273.7,330.5,335.1c171.1,141.7,329.6,244.5,526.5,341.4c180.4,88.6,327.6,143.2,513.8,189.5
				c140.4,35.1,331,67.2,406.6,68.2l27.8,0.5L5210,20605L5210,20605z"/>
		</g>
	</g>
</g>
</svg>
